<svg width="100" height="100" viewBox="0 0 100 100" fill="none" xmlns="http://www.w3.org/2000/svg">
<rect width="100" height="100" rx="5" fill="#6E85B7"/>
<path d="M12.4091 66L5.54545 42.7273H12.5909L15.7727 57.0455H15.9545L19.7273 42.7273H25.2727L29.0455 57.0909H29.2273L32.4091 42.7273H39.4545L32.5909 66H26.5455L22.5909 53H22.4091L18.4545 66H12.4091ZM47 48.5455L49.5455 53.9545L52.2273 48.5455H58.4545L53.7727 57.2727L58.6818 66H52.5L49.5455 60.4545L46.6818 66H40.4091L45.3636 57.2727L40.7273 48.5455H47ZM66.5028 66L59.6392 42.7273H66.6847L69.8665 57.0455H70.0483L73.821 42.7273H79.3665L83.1392 57.0909H83.321L86.5028 42.7273H93.5483L86.6847 66H80.6392L76.6847 53H76.5028L72.5483 66H66.5028Z" fill="white"/>
</svg>
